<svg width="24" height="24" viewBox="0 0 24 24" fill="none" xmlns="http://www.w3.org/2000/svg">
<path d="M20 16C20.5523 16 21 16.4477 21 17V19.0059H23.0059C23.5581 19.0059 24.0059 19.4536 24.0059 20.0059C24.0059 20.5581 23.5581 21.0059 23.0059 21.0059H21V23C21 23.5523 20.5523 24 20 24C19.4477 24 19 23.5523 19 23V21.0059H17.0059C16.4536 21.0059 16.0059 20.5581 16.0059 20.0059C16.0059 19.4536 16.4536 19.0059 17.0059 19.0059H19V17C19 16.4477 19.4477 16 20 16Z" fill="black"/>
<path fill-rule="evenodd" clip-rule="evenodd" d="M12 1C14.2091 1 16 2.79086 16 5H16.7998C17.3434 5 17.8116 4.99893 18.1953 5.03027C18.5906 5.06258 18.984 5.1344 19.3623 5.32715C19.9265 5.61472 20.3853 6.07348 20.6729 6.6377C20.8656 7.01599 20.9374 7.40943 20.9697 7.80469C21.0011 8.18836 21 8.65665 21 9.2002V13.2002C21 13.4799 20.9997 13.6197 20.9453 13.7266C20.8974 13.8206 20.8206 13.8974 20.7266 13.9453C20.6197 13.9997 20.4799 14 20.2002 14H19.7998C19.5201 14 19.3803 13.9997 19.2734 13.9453C19.1794 13.8974 19.1026 13.8206 19.0547 13.7266C19.0003 13.6197 19 13.4799 19 13.2002V9.2002C19 8.62364 18.9987 8.25111 18.9756 7.96777C18.9534 7.69619 18.9158 7.59534 18.8906 7.5459C18.7948 7.35793 18.6421 7.20521 18.4541 7.10938C18.4047 7.08419 18.3038 7.04661 18.0322 7.02441C17.7489 7.00127 17.3764 7 16.7998 7H7.2002C6.62365 7 6.25111 7.00126 5.96778 7.02441C5.6962 7.04661 5.59534 7.08419 5.5459 7.10938C5.35794 7.20522 5.20522 7.35793 5.10938 7.5459C5.08419 7.59534 5.04662 7.69619 5.02442 7.96777C5.00127 8.25111 5 8.62364 5 9.2002V13.5996C5 14.736 5.00041 15.5287 5.05079 16.1455C5.10023 16.7507 5.19297 17.0989 5.32715 17.3623C5.61473 17.9265 6.07348 18.3853 6.6377 18.6729C6.90105 18.807 7.24933 18.8998 7.8545 18.9492C8.4713 18.9996 9.26397 19 10.4004 19H13.2002C13.4799 19 13.6197 19.0003 13.7266 19.0547C13.8206 19.1026 13.8974 19.1794 13.9453 19.2734C13.9997 19.3803 14 19.5201 14 19.7998V20.2002C14 20.4799 13.9997 20.6197 13.9453 20.7266C13.8974 20.8206 13.8206 20.8974 13.7266 20.9453C13.6197 20.9997 13.4799 21 13.2002 21H10.4004C9.29682 21 8.40858 21.001 7.69141 20.9424C6.96271 20.8828 6.32266 20.7567 5.73047 20.4551C4.78967 19.9757 4.02429 19.2103 3.54493 18.2695C3.24327 17.6773 3.11716 17.0373 3.05762 16.3086C2.99903 15.5914 3 14.7032 3 13.5996V9.2002C3 8.65665 2.99893 8.18836 3.03028 7.80469C3.06259 7.40943 3.1344 7.01599 3.32715 6.6377C3.61473 6.07347 4.07348 5.61472 4.6377 5.32715C5.01599 5.1344 5.40944 5.06258 5.80469 5.03027C6.18836 4.99893 6.65665 5 7.2002 5H8C8 2.79086 9.79087 1 12 1ZM12 3C10.8954 3 10 3.89543 10 5H14C14 3.89543 13.1046 3 12 3Z" fill="black"/>
<path d="M15 8C15.5523 8 16 8.44772 16 9C16 11.2091 14.2091 13 12 13C9.79087 13 8 11.2091 8 9C8 8.44772 8.44772 8 9 8C9.55229 8 10 8.44772 10 9C10 10.1046 10.8954 11 12 11C13.1046 11 14 10.1046 14 9C14 8.44772 14.4477 8 15 8Z" fill="black"/>
</svg>
