<svg width="16" height="16" viewBox="0 0 16 16" fill="none" xmlns="http://www.w3.org/2000/svg">
<path fill-rule="evenodd" clip-rule="evenodd" d="M7.66987 2.50695C8.00182 2.8389 8.00182 3.37709 7.66988 3.70903L3.52407 7.85489C3.07078 8.3182 2.81827 8.94152 2.82137 9.5898C2.82446 10.2393 3.08387 10.8613 3.54318 11.3205C4.0025 11.7798 4.62457 12.0391 5.27408 12.042C5.92238 12.045 6.5457 11.7923 7.00891 11.3389L12.9338 5.41301C13.0905 5.25637 13.1788 5.04372 13.1788 4.82217C13.1788 4.60064 13.0909 4.38814 12.9342 4.23142C12.7776 4.07471 12.5651 3.98665 12.3436 3.98661C12.122 3.98656 11.9096 4.0745 11.7529 4.23104V4.23104L5.87124 10.1127C5.5393 10.4446 5.00111 10.4446 4.66916 10.1127C4.33722 9.78073 4.33722 9.24254 4.66916 8.9106L10.5508 3.02896C11.0264 2.55357 11.6715 2.28646 12.3439 2.28661C13.0164 2.28675 13.6612 2.55402 14.1366 3.02959C14.6119 3.50515 14.8789 4.15008 14.8788 4.82253C14.8787 5.49488 14.6115 6.13964 14.136 6.61499L8.2025 12.5495C7.41922 13.3184 6.36394 13.747 5.26633 13.742C4.1687 13.737 3.11745 13.2988 2.34122 12.5227C1.56498 11.7467 1.12662 10.6955 1.12139 9.5979C1.11615 8.50029 1.5445 7.44498 2.3133 6.66155L2.31891 6.65583L6.46779 2.50696C6.79973 2.17501 7.33792 2.17501 7.66987 2.50695Z" fill="black"/>
</svg>
