<svg width="32" height="32" viewBox="0 0 32 32" fill="none" xmlns="http://www.w3.org/2000/svg">
<g clip-path="url(#clip0_48_4001)">
<path d="M28.1759 1.49605C28.0098 1.49605 27.8495 1.56227 27.7321 1.67961L20.6431 8.76859C20.3411 9.07065 19.8322 8.77789 19.9438 8.36431L21.5725 2.28488C21.6794 1.8864 21.3785 1.49489 20.9661 1.49489H18.4741C18.1907 1.49489 17.9421 1.68542 17.8677 1.95959L16.6177 6.62285C16.5422 6.90631 16.5422 7.20488 16.6177 7.48835L17.5145 10.8353C17.992 12.6151 19.3815 14.0058 21.1613 14.4821L24.5083 15.3789C24.7917 15.4545 25.0903 15.4545 25.3738 15.3789L30.037 14.1289C30.3112 14.0557 30.5017 13.8071 30.5017 13.5225V11.0294C30.5017 10.6181 30.1125 10.3184 29.7152 10.4252C27.5788 10.998 25.153 11.6474 23.6311 12.0552C23.2187 12.1655 22.926 11.6579 23.228 11.3558L30.3182 4.26566C30.4355 4.14832 30.5017 3.988 30.5017 3.82187C30.5041 2.5393 29.462 1.49605 28.1759 1.49605Z" fill="#14161A"/>
<path d="M28.1759 30.5014C28.0098 30.5014 27.8495 30.4352 27.7321 30.3178L20.6431 23.2289C20.3411 22.9268 19.8322 23.2196 19.9438 23.6331L21.5725 29.7126C21.6794 30.1111 21.3785 30.5026 20.9661 30.5026H18.4741C18.1907 30.5026 17.9421 30.312 17.8677 30.0379L16.6177 25.3746C16.5422 25.0911 16.5422 24.7926 16.6177 24.5091L17.5145 21.1621C17.992 19.3823 19.3815 17.9917 21.1613 17.5154L24.5083 16.6185C24.7917 16.543 25.0903 16.543 25.3738 16.6185L30.037 17.8686C30.3112 17.9417 30.5017 18.1904 30.5017 18.475V20.9681C30.5017 21.3794 30.1125 21.6791 29.7152 21.5722C27.5788 20.9995 25.153 20.35 23.6311 19.9423C23.2187 19.8319 22.926 20.3396 23.228 20.6416L30.3182 27.7318C30.4355 27.8491 30.5017 28.0095 30.5017 28.1756C30.5017 29.4616 29.4585 30.5049 28.1724 30.5049L28.1759 30.5014Z" fill="#14161A"/>
<path d="M3.82784 1.49611C3.99397 1.49611 4.15429 1.56233 4.27163 1.67967L11.3606 8.76865C11.6627 9.07071 12.1715 8.77795 12.06 8.36437L10.4312 2.28494C10.3243 1.88762 10.6252 1.49611 11.0377 1.49611H13.5296C13.8131 1.49611 14.0617 1.68664 14.136 1.96081L15.3861 6.62407C15.4616 6.90753 15.4616 7.2061 15.3861 7.48957L14.4892 10.8366C14.0117 12.6164 12.6223 14.007 10.8425 14.4833L7.49548 15.3802C7.21201 15.4557 6.91345 15.4557 6.62998 15.3802L1.96672 14.1301C1.68906 14.0593 1.49854 13.8106 1.49854 13.526V11.0329C1.49854 10.6216 1.88888 10.3208 2.2862 10.4276C4.42149 11.0004 6.84606 11.6498 8.36795 12.0576C8.78154 12.1679 9.0743 11.6602 8.77108 11.3582L1.68209 4.2692C1.56475 4.1507 1.49854 3.99154 1.49854 3.82541C1.49854 2.53936 2.54179 1.49611 3.82784 1.49611Z" fill="#14161A"/>
<path d="M3.82784 30.5014C3.99397 30.5014 4.15429 30.4352 4.27163 30.3178L11.3606 23.2289C11.6627 22.9268 12.1715 23.2196 12.06 23.6331L10.4312 29.7126C10.3243 30.1111 10.6252 30.5026 11.0377 30.5026H13.5296C13.8131 30.5026 14.0617 30.312 14.136 30.0379L15.3861 25.3746C15.4616 25.0911 15.4616 24.7926 15.3861 24.5091L14.4892 21.1621C14.0117 19.3823 12.6223 17.9917 10.8425 17.5154L7.49548 16.6185C7.21201 16.543 6.91345 16.543 6.62998 16.6185L1.96672 17.8686C1.68906 17.9394 1.49854 18.188 1.49854 18.4715V20.9646C1.49854 21.3759 1.88888 21.6768 2.2862 21.5699C4.42149 20.9971 6.84606 20.3477 8.36795 19.9399C8.78154 19.8296 9.0743 20.3373 8.77108 20.6393L1.68209 27.7295C1.56475 27.8468 1.49854 28.006 1.49854 28.1733C1.49854 29.4593 2.54179 30.5026 3.82784 30.5026V30.5014Z" fill="#14161A"/>
</g>
<defs>
<clipPath id="clip0_48_4001">
<rect width="32" height="32" rx="5.3" fill="white"/>
</clipPath>
</defs>
</svg>
