<svg width="16" height="16" viewBox="0 0 16 16" fill="none" xmlns="http://www.w3.org/2000/svg">
<path fill-rule="evenodd" clip-rule="evenodd" d="M3.50995 3.50988C3.84189 3.17794 4.38008 3.17794 4.71203 3.50988L8.00007 6.79793L11.2881 3.50988C11.6201 3.17794 12.1583 3.17794 12.4902 3.50988C12.8221 3.84183 12.8221 4.38002 12.4902 4.71197L9.20216 8.00001L12.4902 11.2881C12.8221 11.62 12.8221 12.1582 12.4902 12.4901C12.1583 12.8221 11.6201 12.8221 11.2881 12.4901L8.00007 9.20209L4.71203 12.4901C4.38008 12.8221 3.84189 12.8221 3.50995 12.4901C3.178 12.1582 3.178 11.62 3.50995 11.2881L6.79799 8.00001L3.50995 4.71197C3.178 4.38002 3.178 3.84183 3.50995 3.50988Z" fill="black"/>
</svg>
