<svg width="17" height="16" viewBox="0 0 17 16" fill="none" xmlns="http://www.w3.org/2000/svg">
<path fill-rule="evenodd" clip-rule="evenodd" d="M14.0361 3.7H4.03613C3.87045 3.7 3.73613 3.83431 3.73613 4H2.03613C2.03613 2.89543 2.93156 2 4.03613 2H14.0361C15.1407 2 16.0361 2.89543 16.0361 4V12C16.0361 13.1046 15.1407 14 14.0361 14H4.03613C2.93156 14 2.03613 13.1046 2.03613 12H3.73613C3.73613 12.1657 3.87045 12.3 4.03613 12.3H14.0361C14.2018 12.3 14.3361 12.1657 14.3361 12V4C14.3361 3.83431 14.2018 3.7 14.0361 3.7ZM5.54688 7.10083C5.53125 6.86646 5.47396 6.6425 5.375 6.42896C5.27865 6.21541 5.13932 6.02531 4.95703 5.85864C4.77474 5.68937 4.55078 5.55656 4.28516 5.46021C4.01953 5.36385 3.71224 5.31567 3.36328 5.31567C2.85547 5.31567 2.42578 5.41854 2.07422 5.62427C1.72266 5.83 1.45573 6.11515 1.27344 6.47974C1.09115 6.84172 1 7.26099 1 7.73755V8.37817C1 8.72713 1.04557 9.05135 1.13672 9.35083C1.23047 9.64771 1.3737 9.90812 1.56641 10.1321C1.75911 10.3534 2.00391 10.5266 2.30078 10.6516C2.59766 10.7766 2.95052 10.8391 3.35938 10.8391C3.74219 10.8391 4.07161 10.7857 4.34766 10.679C4.6263 10.5696 4.85417 10.4224 5.03125 10.2375C5.21094 10.05 5.34375 9.83781 5.42969 9.60083C5.51562 9.36125 5.55859 9.11125 5.55859 8.85083V7.81177H3.41797V8.71411H4.34766V8.94849C4.34766 9.09692 4.3125 9.23494 4.24219 9.36255C4.17188 9.49015 4.0651 9.59302 3.92188 9.67114C3.77865 9.74927 3.59896 9.78833 3.38281 9.78833C3.11979 9.78833 2.90755 9.72713 2.74609 9.60474C2.58724 9.47974 2.47135 9.31047 2.39844 9.09692C2.32812 8.88338 2.29297 8.6425 2.29297 8.37427V7.74927C2.29297 7.30916 2.38411 6.96932 2.56641 6.72974C2.7487 6.48755 3.01042 6.36646 3.35156 6.36646C3.48698 6.36646 3.60807 6.38468 3.71484 6.42114C3.82422 6.4576 3.91927 6.50968 4 6.57739C4.08073 6.6451 4.14583 6.72323 4.19531 6.81177C4.24479 6.90031 4.27865 6.99666 4.29688 7.10083H5.54688ZM7.875 10.7415V5.40942H6.58984V10.7415H7.875ZM10.3984 8.72974V10.7415H9.11328V5.40942H12.6641V6.44067H10.3984V7.72974H12.457V8.72974H10.3984Z" fill="black"/>
</svg>
