<svg width="12" height="12" viewBox="0 0 12 12" fill="none" xmlns="http://www.w3.org/2000/svg">
<path d="M2.61384 11.1495C2.49991 11.0648 2.42992 10.9509 2.40388 10.8077C2.38109 10.6677 2.40225 10.5017 2.46736 10.3096L3.47322 7.32623L0.90974 5.48541C0.743724 5.36823 0.628164 5.24615 0.56306 5.1192C0.497956 4.98899 0.48819 4.85553 0.533763 4.71881C0.579336 4.58535 0.665599 4.48606 0.792552 4.42096C0.919505 4.3526 1.08552 4.32005 1.2906 4.3233L4.43025 4.34283L5.38728 1.34479C5.44913 1.14948 5.53051 1.00136 5.63142 0.900452C5.73559 0.796285 5.85766 0.744202 5.99763 0.744202C6.14086 0.744202 6.26293 0.796285 6.36384 0.900452C6.46801 1.00136 6.55102 1.14948 6.61286 1.34479L7.5699 4.34283L10.7095 4.3233C10.9146 4.32005 11.0806 4.3526 11.2076 4.42096C11.3345 4.48606 11.4208 4.58535 11.4664 4.71881C11.512 4.85553 11.5022 4.98899 11.4371 5.1192C11.372 5.24615 11.2564 5.36823 11.0904 5.48541L8.52693 7.32623L9.53279 10.3096C9.59789 10.5017 9.61742 10.6677 9.59138 10.8077C9.56859 10.9509 9.50023 11.0648 9.3863 11.1495C9.27237 11.2406 9.14379 11.2732 9.00056 11.2471C8.85733 11.2211 8.70434 11.1495 8.54158 11.0323L5.99763 9.16217L3.45857 11.0323C3.29581 11.1495 3.14281 11.2211 2.99958 11.2471C2.85635 11.2732 2.72777 11.2406 2.61384 11.1495ZM5.99763 8.15143C6.08878 8.14492 6.18481 8.18235 6.28572 8.26373L8.48786 9.96295C8.5074 9.97597 8.52042 9.9776 8.52693 9.96783C8.53018 9.96132 8.53018 9.9483 8.52693 9.92877L7.59919 7.31158C7.57315 7.23346 7.5585 7.16347 7.55525 7.10162C7.55525 7.03652 7.57152 6.97793 7.60408 6.92584C7.63988 6.87376 7.69359 6.8233 7.76521 6.77448L10.0601 5.20709C10.0797 5.19407 10.0878 5.18105 10.0845 5.16803C10.0813 5.15826 10.0666 5.15338 10.0406 5.15338L7.26716 5.22174C7.14021 5.225 7.04092 5.20384 6.96931 5.15826C6.8977 5.10944 6.84398 5.02155 6.80818 4.89459L6.02693 2.23346C6.02042 2.21067 6.01065 2.19928 5.99763 2.19928V8.15143Z" fill="black"/>
</svg>
