<svg width="12" height="12" viewBox="0 0 12 12" fill="none" xmlns="http://www.w3.org/2000/svg">
<path d="M2.61411 11.1517C2.38462 10.9808 2.33579 10.6976 2.46763 10.3118L3.47349 7.32843L0.910009 5.48761C0.577977 5.25323 0.441259 4.99445 0.534032 4.72101C0.626806 4.45245 0.880712 4.3255 1.28599 4.3255H4.43052L5.38755 1.34698C5.5145 0.95636 5.7147 0.746399 5.9979 0.746399C6.28599 0.746399 6.48618 0.95636 6.60825 1.34698L7.56528 4.3255H10.7098C11.1151 4.3255 11.3739 4.45245 11.4666 4.72101C11.5594 4.99445 11.4178 5.25323 11.0907 5.48761L8.5272 7.32843L9.52817 10.3118C9.66001 10.6976 9.61118 10.9808 9.38657 11.1517C9.15708 11.3275 8.86899 11.2689 8.53696 11.0296L5.9979 9.16437L3.45884 11.0296C3.12681 11.2689 2.8436 11.3275 2.61411 11.1517Z" fill="black"/>
</svg>
